<svg width="15" height="15" viewBox="0 0 15 15" fill="none" xmlns="http://www.w3.org/2000/svg">
<path d="M7.49996 6.99993C6.53459 6.99993 5.70992 6.65795 5.02595 5.97398C4.34198 5.29002 4 4.46535 4 3.49997C4 2.5346 4.34198 1.70993 5.02595 1.02596C5.70992 0.341991 6.53459 7.62939e-06 7.49996 7.62939e-06C8.46534 7.62939e-06 9.29001 0.341991 9.97398 1.02596C10.6579 1.70993 10.9999 2.5346 10.9999 3.49997C10.9999 4.46535 10.6579 5.29002 9.97398 5.97398C9.29001 6.65795 8.46534 6.99993 7.49996 6.99993V6.99993M0 14.6153V12.3923C0 11.9025 0.133012 11.449 0.399036 11.0317C0.665059 10.6144 1.02051 10.2936 1.46537 10.0692C2.45383 9.58459 3.45094 9.22113 4.45671 8.97882C5.46247 8.73652 6.47689 8.61536 7.49996 8.61536C8.52303 8.61536 9.53745 8.73652 10.5432 8.97882C11.549 9.22113 12.5461 9.58459 13.5346 10.0692C13.9794 10.2936 14.3349 10.6144 14.6009 11.0317C14.8669 11.449 14.9999 11.9025 14.9999 12.3923V14.6153H0V14.6153M1.49996 13.1153H13.5V12.3923C13.5 12.1897 13.4413 12.0022 13.324 11.8298C13.2067 11.6573 13.0474 11.5166 12.8461 11.4076C11.9846 10.9833 11.1061 10.6618 10.2107 10.4432C9.31524 10.2246 8.41167 10.1153 7.49996 10.1153C6.58826 10.1153 5.68469 10.2246 4.78926 10.4432C3.89384 10.6618 3.01536 10.9833 2.15382 11.4076C1.95253 11.5166 1.79324 11.6573 1.67593 11.8298C1.55862 12.0022 1.49996 12.1897 1.49996 12.3923V13.1153V13.1153M7.49996 5.49997C8.04996 5.49997 8.5208 5.30414 8.91246 4.91247C9.30413 4.5208 9.49996 4.04997 9.49996 3.49997C9.49996 2.94997 9.30413 2.47914 8.91246 2.08747C8.5208 1.6958 8.04996 1.49997 7.49996 1.49997C6.94996 1.49997 6.47913 1.6958 6.08746 2.08747C5.6958 2.47914 5.49996 2.94997 5.49996 3.49997C5.49996 4.04997 5.6958 4.5208 6.08746 4.91247C6.47913 5.30414 6.94996 5.49997 7.49996 5.49997V5.49997M7.49996 3.49997V3.49997V3.49997V3.49997V3.49997V3.49997V3.49997V3.49997V3.49997V3.49997M7.49996 13.1153V13.1153V13.1153V13.1153V13.1153V13.1153V13.1153V13.1153V13.1153V13.1153V13.1153V13.1153V13.1153" fill="#1A1C1B"/>
</svg>
