<svg width="19" height="23" viewBox="0 0 19 23" fill="none" xmlns="http://www.w3.org/2000/svg">
<path d="M5.80768 22.9999C5.30255 22.9999 4.87499 22.8249 4.525 22.4749C4.175 22.1249 4 21.6974 4 21.1923V9.80769C4 9.30256 4.175 8.875 4.525 8.525C4.87499 8.17501 5.30255 8.00001 5.80768 8.00001H7.74998V7.74999C7.74998 6.7141 8.11601 5.83013 8.84805 5.09808C9.5801 4.36603 10.4641 4.00001 11.5 4.00001C12.5359 4.00001 13.4198 4.36603 14.1519 5.09808C14.8839 5.83013 15.2499 6.7141 15.2499 7.74999V8.00001H17.1922C17.6974 8.00001 18.1249 8.17501 18.4749 8.525C18.8249 8.875 18.9999 9.30256 18.9999 9.80769V21.1923C18.9999 21.6974 18.8249 22.1249 18.4749 22.4749C18.1249 22.8249 17.6974 22.9999 17.1922 22.9999H5.80768V22.9999M5.80768 21.5H17.1922C17.2692 21.5 17.3397 21.4679 17.4038 21.4038C17.4679 21.3397 17.5 21.2692 17.5 21.1923V9.80769C17.5 9.73076 17.4679 9.66024 17.4038 9.59613C17.3397 9.53202 17.2692 9.49997 17.1922 9.49997H15.2499V11.75C15.2499 11.9628 15.1782 12.141 15.0346 12.2846C14.891 12.4282 14.7128 12.5 14.5 12.5C14.2871 12.5 14.1089 12.4282 13.9654 12.2846C13.8218 12.141 13.75 11.9628 13.75 11.75V9.49997H9.24995V11.75C9.24995 11.9628 9.17815 12.141 9.03457 12.2846C8.89098 12.4282 8.71278 12.5 8.49996 12.5C8.28715 12.5 8.10895 12.4282 7.96536 12.2846C7.82177 12.141 7.74998 11.9628 7.74998 11.75V9.49997H5.80768C5.73075 9.49997 5.66023 9.53202 5.59612 9.59613C5.53202 9.66024 5.49996 9.73076 5.49996 9.80769V21.1923C5.49996 21.2692 5.53202 21.3397 5.59612 21.4038C5.66023 21.4679 5.73075 21.5 5.80768 21.5V21.5M9.24995 8.00001H13.75V7.74999C13.75 7.12306 13.5317 6.59133 13.0952 6.15478C12.6586 5.71824 12.1269 5.49997 11.5 5.49997C10.873 5.49997 10.3413 5.71824 9.90476 6.15478C9.46822 6.59133 9.24995 7.12306 9.24995 7.74999V8.00001V8.00001M5.49996 21.5V21.5C5.49996 21.5 5.49996 21.4679 5.49996 21.4038C5.49996 21.3397 5.49996 21.2692 5.49996 21.1923V9.80769C5.49996 9.73076 5.49996 9.66024 5.49996 9.59613C5.49996 9.53202 5.49996 9.49997 5.49996 9.49997V9.49997C5.49996 9.49997 5.49996 9.53202 5.49996 9.59613C5.49996 9.66024 5.49996 9.73076 5.49996 9.80769V21.1923C5.49996 21.2692 5.49996 21.3397 5.49996 21.4038C5.49996 21.4679 5.49996 21.5 5.49996 21.5V21.5" fill="#1A1C1B"/>
<rect y="7.62939e-06" width="16" height="16" rx="8" fill="#555F53"/>
<path d="M8.01982 11.58C7.63316 11.58 7.30482 11.5083 7.03482 11.365C6.76482 11.2217 6.54316 11.0267 6.36982 10.78C6.19649 10.5333 6.06482 10.255 5.97482 9.94501C5.88482 9.63501 5.82149 9.31167 5.78482 8.97501C5.74816 8.63834 5.72982 8.31001 5.72982 7.99001C5.72982 7.67667 5.74649 7.35334 5.77982 7.02001C5.81316 6.68667 5.87482 6.36667 5.96482 6.06001C6.05482 5.75334 6.18482 5.47834 6.35482 5.23501C6.52482 4.99167 6.74316 4.79834 7.00982 4.65501C7.27649 4.51167 7.60316 4.44001 7.98982 4.44001C8.36316 4.44001 8.68149 4.50834 8.94482 4.64501C9.20816 4.78167 9.42649 4.96834 9.59982 5.20501C9.77316 5.44167 9.90816 5.71167 10.0048 6.01501C10.1015 6.31834 10.1698 6.64001 10.2098 6.98001C10.2498 7.32001 10.2698 7.66001 10.2698 8.00001C10.2698 8.34667 10.2498 8.69001 10.2098 9.03001C10.1698 9.37001 10.1015 9.69334 10.0048 10C9.90816 10.3067 9.77482 10.5783 9.60482 10.815C9.43482 11.0517 9.21982 11.2383 8.95982 11.375C8.69982 11.5117 8.38649 11.58 8.01982 11.58ZM8.01982 10.76C8.36649 10.76 8.64149 10.64 8.84482 10.4C9.04816 10.16 9.19316 9.83334 9.27982 9.42001C9.36649 9.00667 9.40982 8.54334 9.40982 8.03001C9.40982 7.49001 9.36482 7.01167 9.27482 6.59501C9.18482 6.17834 9.03649 5.85001 8.82982 5.61001C8.62316 5.37001 8.34316 5.25001 7.98982 5.25001C7.70982 5.25001 7.47982 5.32334 7.29982 5.47001C7.11982 5.61667 6.97982 5.81834 6.87982 6.07501C6.77982 6.33167 6.70816 6.62667 6.66482 6.96001C6.62149 7.29334 6.59982 7.64667 6.59982 8.02001C6.59982 8.38001 6.62149 8.72501 6.66482 9.05501C6.70816 9.38501 6.78149 9.67667 6.88482 9.93001C6.98816 10.1833 7.13149 10.385 7.31482 10.535C7.49816 10.685 7.73316 10.76 8.01982 10.76Z" fill="white"/>
</svg>
