<svg width="158" height="48" viewBox="0 0 158 48" fill="none" xmlns="http://www.w3.org/2000/svg">
<path d="M1.37 38.2C1.02333 38.2 0.743333 38.1667 0.53 38.1C0.316667 38.0333 0.21 37.92 0.21 37.76C0.21 37.44 0.65 37.2 1.53 37.04C2.54333 36.8533 3.24333 36.5467 3.63 36.12C4.01667 35.6933 4.21 34.9867 4.21 34V17.12C4.21 15.92 4.05667 15 3.75 14.36C3.44333 13.72 2.78333 13.3067 1.77 13.12C1.31667 13.04 0.983333 12.9333 0.77 12.8C0.556667 12.6667 0.45 12.5067 0.45 12.32C0.45 12.16 0.556667 12.0467 0.77 11.98C0.983333 11.9133 1.26333 11.88 1.61 11.88C2.59667 11.88 3.43 11.8933 4.11 11.92C4.79 11.9467 5.46333 11.9667 6.13 11.98C6.79667 11.9933 7.58333 12 8.49 12C9.26333 12 10.09 12 10.97 12C11.85 12 12.7033 12 13.53 12C14.3833 12 15.1367 11.9333 15.79 11.8C16.4433 11.6667 17.01 11.6 17.49 11.6C17.6233 11.6 17.77 11.6267 17.93 11.68C18.09 11.7333 18.1833 11.8267 18.21 11.96C18.2633 12.2533 18.3033 12.6867 18.33 13.26C18.3567 13.8333 18.3767 14.3867 18.39 14.92C18.4033 15.4533 18.41 15.8133 18.41 16C18.41 16.56 18.29 16.84 18.05 16.84C17.9167 16.84 17.7967 16.7933 17.69 16.7C17.5833 16.6067 17.5033 16.4933 17.45 16.36C17.3433 15.9067 17.21 15.5133 17.05 15.18C16.89 14.8467 16.7167 14.5867 16.53 14.4C16.1567 13.9733 15.7433 13.6867 15.29 13.54C14.8367 13.3933 14.3567 13.32 13.85 13.32H8.77C8.15667 13.32 7.78333 13.52 7.65 13.92C7.51667 14.32 7.43667 14.7867 7.41 15.32C7.38333 15.8267 7.37 16.4467 7.37 17.18C7.37 17.9133 7.37 18.6267 7.37 19.32C7.37 19.9867 7.37 20.6667 7.37 21.36C7.37 22.0533 7.38333 22.64 7.41 23.12C7.41 23.3333 7.43 23.5333 7.47 23.72C7.51 23.9067 7.62333 24 7.81 24C8.66333 24 9.53 23.98 10.41 23.94C11.29 23.9 11.97 23.88 12.45 23.88C13.0367 23.88 13.5433 23.72 13.97 23.4C14.3967 23.08 14.7033 22.6933 14.89 22.24C14.9433 22.1333 15.05 21.9933 15.21 21.82C15.37 21.6467 15.5033 21.56 15.61 21.56C15.7167 21.56 15.8367 21.62 15.97 21.74C16.1033 21.86 16.1567 22.0133 16.13 22.2C16.1033 22.6533 16.0767 23.0533 16.05 23.4C16.0233 23.7467 16.01 24.08 16.01 24.4C16.01 24.8 16.0233 25.2067 16.05 25.62C16.0767 26.0333 16.1033 26.5333 16.13 27.12C16.13 27.3067 16.11 27.4667 16.07 27.6C16.03 27.7333 15.93 27.8 15.77 27.8C15.5033 27.8 15.2967 27.68 15.15 27.44C15.0033 27.2 14.9033 27.0133 14.85 26.88C14.6633 26.2667 14.3833 25.8467 14.01 25.62C13.6367 25.3933 13.29 25.28 12.97 25.28C12.6233 25.28 12.2833 25.2733 11.95 25.26C11.6167 25.2467 11.29 25.24 10.97 25.24C10.5167 25.24 10.0767 25.24 9.65 25.24C9.22333 25.24 8.79667 25.2667 8.37 25.32C8.10333 25.3467 7.87667 25.4333 7.69 25.58C7.50333 25.7267 7.41 25.9733 7.41 26.32C7.41 27.5467 7.41667 28.7933 7.43 30.06C7.44333 31.3267 7.47667 32.6267 7.53 33.96C7.58333 34.8133 7.79 35.4933 8.15 36C8.51 36.5067 9.18333 36.8533 10.17 37.04C10.6233 37.12 10.9567 37.2133 11.17 37.32C11.3833 37.4267 11.49 37.5733 11.49 37.76C11.49 37.92 11.3833 38.0333 11.17 38.1C10.9567 38.1667 10.6767 38.2 10.33 38.2C9.61 38.2 9.05667 38.1733 8.67 38.12C8.28333 38.0667 7.93667 38.02 7.63 37.98C7.32333 37.94 6.91667 37.92 6.41 37.92C5.77 37.92 5.20333 37.94 4.71 37.98C4.21667 38.02 3.71667 38.0667 3.21 38.12C2.70333 38.1733 2.09 38.2 1.37 38.2ZM21.97 38.56C21.49 38.56 21.0033 38.3733 20.51 38C20.0167 37.6267 19.6033 37.1733 19.27 36.64C18.9367 36.1067 18.77 35.6 18.77 35.12C18.77 34.2667 18.9967 33.6 19.45 33.12C19.9033 32.64 20.6233 32.2 21.61 31.8L25.69 30.12C26.2233 29.9067 26.5367 29.72 26.63 29.56C26.7233 29.4 26.7833 29.0533 26.81 28.52L26.89 25.96C26.9167 25.2667 26.7233 24.6667 26.31 24.16C25.8967 23.6533 25.3033 23.4 24.53 23.4C24.13 23.4 23.73 23.4667 23.33 23.6C22.93 23.7333 22.5967 23.9067 22.33 24.12C22.17 24.2267 22.0633 24.3867 22.01 24.6C21.9567 24.8133 21.93 25.04 21.93 25.28C21.93 25.3867 21.9367 25.5067 21.95 25.64C21.9633 25.7733 21.97 25.8933 21.97 26C21.97 26.1333 21.8033 26.3133 21.47 26.54C21.1367 26.7667 20.7633 26.9667 20.35 27.14C19.9367 27.3133 19.5967 27.4 19.33 27.4C19.1967 27.4 19.09 27.3667 19.01 27.3C18.93 27.2333 18.89 27.1467 18.89 27.04C18.89 26.6133 19.03 26.1533 19.31 25.66C19.59 25.1667 19.9833 24.7067 20.49 24.28C21.1033 23.72 21.77 23.2267 22.49 22.8C23.21 22.3733 23.9167 22.04 24.61 21.8C25.3033 21.56 25.9167 21.44 26.45 21.44C27.41 21.44 28.2033 21.78 28.83 22.46C29.4567 23.14 29.7567 23.9867 29.73 25L29.53 34.6C29.5033 35.16 29.63 35.6133 29.91 35.96C30.19 36.3067 30.5433 36.48 30.97 36.48C31.6367 36.48 32.13 36.3333 32.45 36.04C32.5833 35.9067 32.69 35.84 32.77 35.84C32.9033 35.84 33.01 35.88 33.09 35.96C33.17 36.04 33.21 36.1467 33.21 36.28C33.21 36.5733 33.0633 36.8667 32.77 37.16C32.3433 37.5867 31.8833 37.9267 31.39 38.18C30.8967 38.4333 30.4367 38.56 30.01 38.56C28.7833 38.56 27.81 37.8667 27.09 36.48H26.97C26.09 37.2 25.25 37.7267 24.45 38.06C23.65 38.3933 22.8233 38.56 21.97 38.56ZM23.85 36.64C24.3833 36.64 24.8367 36.5533 25.21 36.38C25.5833 36.2067 25.9167 35.9733 26.21 35.68C26.3433 35.5467 26.4567 35.3667 26.55 35.14C26.6433 34.9133 26.7033 34.5467 26.73 34.04L26.81 32.08C26.8367 31.7867 26.8233 31.5733 26.77 31.44C26.7167 31.3067 26.61 31.24 26.45 31.24C26.3967 31.24 26.3033 31.2533 26.17 31.28C26.0367 31.3067 25.8633 31.36 25.65 31.44C24.2367 31.9467 23.2567 32.4733 22.71 33.02C22.1633 33.5667 21.89 34.0667 21.89 34.52C21.89 35.2133 22.0967 35.74 22.51 36.1C22.9233 36.46 23.37 36.64 23.85 36.64ZM38.01 38.56C37.1833 38.56 36.41 38.4333 35.69 38.18C34.97 37.9267 34.3567 37.5733 33.85 37.12C33.7167 36.8267 33.6167 36.3333 33.55 35.64C33.4833 34.9467 33.4367 34.3733 33.41 33.92C33.41 33.68 33.5833 33.56 33.93 33.56C34.0367 33.56 34.1367 33.58 34.23 33.62C34.3233 33.66 34.3833 33.7333 34.41 33.84C34.7567 35.1467 35.31 36.08 36.07 36.64C36.83 37.2 37.5967 37.48 38.37 37.48C39.1433 37.48 39.8033 37.22 40.35 36.7C40.8967 36.18 41.17 35.5333 41.17 34.76C41.17 34.04 40.93 33.42 40.45 32.9C39.97 32.38 39.13 31.7467 37.93 31C37.0233 30.44 36.29 29.9067 35.73 29.4C35.17 28.8933 34.7633 28.3733 34.51 27.84C34.2567 27.3067 34.13 26.7067 34.13 26.04C34.13 25.1867 34.33 24.4133 34.73 23.72C35.13 23.0267 35.73 22.4733 36.53 22.06C37.33 21.6467 38.33 21.44 39.53 21.44C40.33 21.44 40.9967 21.52 41.53 21.68C42.0633 21.84 42.4633 22.0133 42.73 22.2C42.9433 22.4933 43.1233 22.9533 43.27 23.58C43.4167 24.2067 43.49 24.8 43.49 25.36C43.49 25.5467 43.3567 25.64 43.09 25.64C42.93 25.64 42.7767 25.6067 42.63 25.54C42.4833 25.4733 42.3833 25.3867 42.33 25.28C41.9833 24.4 41.55 23.7267 41.03 23.26C40.51 22.7933 39.8633 22.56 39.09 22.56C38.4233 22.56 37.83 22.76 37.31 23.16C36.79 23.56 36.53 24.1467 36.53 24.92C36.53 25.5333 36.7233 26.08 37.11 26.56C37.4967 27.04 38.2233 27.5867 39.29 28.2C40.8367 29.08 41.99 29.9 42.75 30.66C43.51 31.42 43.89 32.4267 43.89 33.68C43.89 35.12 43.3433 36.2933 42.25 37.2C41.1567 38.1067 39.7433 38.56 38.01 38.56ZM45.73 38.12C45.1967 38.12 44.93 37.9733 44.93 37.68C44.93 37.44 45.2367 37.2267 45.85 37.04C46.25 36.9067 46.63 36.7333 46.99 36.52C47.35 36.3067 47.5433 35.9333 47.57 35.4V15.36C47.57 14.64 47.45 14.0067 47.21 13.46C46.97 12.9133 46.5033 12.5867 45.81 12.48C45.57 12.4267 45.45 12.24 45.45 11.92C45.45 11.68 45.5567 11.52 45.77 11.44C46.1433 11.3067 46.59 11.16 47.11 11C47.63 10.84 48.17 10.66 48.73 10.46C49.29 10.26 49.7833 10.0667 50.21 9.88C50.3167 9.82667 50.3967 9.8 50.45 9.8C50.53 9.8 50.5967 9.82667 50.65 9.88C50.7033 9.93333 50.73 10 50.73 10.08C50.73 10.24 50.6967 10.4667 50.63 10.76C50.5633 11.0533 50.5033 11.56 50.45 12.28C50.3967 13 50.37 14.08 50.37 15.52V22.48C50.37 22.9067 50.39 23.2133 50.43 23.4C50.47 23.5867 50.5433 23.7733 50.65 23.96C51.0767 23.64 51.6033 23.2867 52.23 22.9C52.8567 22.5133 53.5567 22.1733 54.33 21.88C55.1033 21.5867 55.9033 21.44 56.73 21.44C58.0367 21.44 59.1233 21.9533 59.99 22.98C60.8567 24.0067 61.29 25.3067 61.29 26.88V35.28C61.29 35.8133 61.4633 36.2067 61.81 36.46C62.1567 36.7133 62.53 36.9067 62.93 37.04C63.2233 37.12 63.45 37.2067 63.61 37.3C63.77 37.3933 63.85 37.52 63.85 37.68C63.85 37.9733 63.5833 38.12 63.05 38.12C62.5167 38.12 62.11 38.1 61.83 38.06C61.55 38.02 61.2833 37.9867 61.03 37.96C60.7767 37.9333 60.41 37.92 59.93 37.92C59.4767 37.92 59.1167 37.9333 58.85 37.96C58.5833 37.9867 58.31 38.02 58.03 38.06C57.75 38.1 57.3433 38.12 56.81 38.12C56.2767 38.12 56.01 37.9733 56.01 37.68C56.01 37.4933 56.09 37.3667 56.25 37.3C56.41 37.2333 56.6367 37.1467 56.93 37.04C57.33 36.9067 57.69 36.7133 58.01 36.46C58.33 36.2067 58.49 35.8133 58.49 35.28V27.12C58.49 26.4533 58.2967 25.8467 57.91 25.3C57.5233 24.7533 57.05 24.32 56.49 24C55.93 23.68 55.3567 23.52 54.77 23.52C54.2633 23.52 53.6767 23.5933 53.01 23.74C52.3433 23.8867 51.8233 24.1067 51.45 24.4C51.0233 24.7467 50.7367 25.1067 50.59 25.48C50.4433 25.8533 50.37 26.4533 50.37 27.28V35.4C50.3967 35.9333 50.5633 36.3067 50.87 36.52C51.1767 36.7333 51.53 36.9067 51.93 37.04C52.2233 37.12 52.4433 37.2067 52.59 37.3C52.7367 37.3933 52.81 37.52 52.81 37.68C52.81 37.9733 52.5433 38.12 52.01 38.12C51.4767 38.12 51.0767 38.1 50.81 38.06C50.5433 38.02 50.29 37.9867 50.05 37.96C49.81 37.9333 49.45 37.92 48.97 37.92C48.5167 37.92 48.15 37.9333 47.87 37.96C47.59 37.9867 47.2967 38.02 46.99 38.06C46.6833 38.1 46.2633 38.12 45.73 38.12ZM65.53 38.12C65.29 38.12 65.0967 38.0867 64.95 38.02C64.8033 37.9533 64.73 37.84 64.73 37.68C64.73 37.4667 64.83 37.32 65.03 37.24C65.23 37.16 65.4367 37.0933 65.65 37.04C66.21 36.9067 66.6367 36.74 66.93 36.54C67.2233 36.34 67.37 36 67.37 35.52V26.84C67.37 26.12 67.2433 25.48 66.99 24.92C66.7367 24.36 66.2633 24.0267 65.57 23.92C65.4367 23.8933 65.3367 23.84 65.27 23.76C65.2033 23.68 65.17 23.56 65.17 23.4C65.17 23.1067 65.29 22.9467 65.53 22.92C66.5967 22.68 67.4767 22.3533 68.17 21.94C68.8633 21.5267 69.3833 21.1867 69.73 20.92C69.97 20.7333 70.1567 20.64 70.29 20.64C70.45 20.64 70.53 20.7067 70.53 20.84C70.53 21.0533 70.4967 21.4733 70.43 22.1C70.3633 22.7267 70.3033 23.42 70.25 24.18C70.1967 24.94 70.17 25.6267 70.17 26.24V35.52C70.17 35.9733 70.3233 36.3067 70.63 36.52C70.9367 36.7333 71.3567 36.9067 71.89 37.04C72.1033 37.0933 72.31 37.16 72.51 37.24C72.71 37.32 72.81 37.4667 72.81 37.68C72.81 37.9733 72.5433 38.12 72.01 38.12C71.5033 38.12 71.0967 38.1 70.79 38.06C70.4833 38.02 70.19 37.9867 69.91 37.96C69.63 37.9333 69.25 37.92 68.77 37.92C68.3167 37.92 67.9433 37.9333 67.65 37.96C67.3567 37.9867 67.0633 38.02 66.77 38.06C66.4767 38.1 66.0633 38.12 65.53 38.12ZM68.73 17.36C68.17 17.36 67.6967 17.1667 67.31 16.78C66.9233 16.3933 66.73 15.92 66.73 15.36C66.73 14.7733 66.9233 14.2867 67.31 13.9C67.6967 13.5133 68.17 13.32 68.73 13.32C69.3167 13.32 69.8033 13.5133 70.19 13.9C70.5767 14.2867 70.77 14.7733 70.77 15.36C70.77 15.92 70.5767 16.3933 70.19 16.78C69.8033 17.1667 69.3167 17.36 68.73 17.36ZM74.33 38.12C74.09 38.12 73.8967 38.0867 73.75 38.02C73.6033 37.9533 73.53 37.84 73.53 37.68C73.53 37.4667 73.61 37.3267 73.77 37.26C73.93 37.1933 74.1567 37.12 74.45 37.04C74.85 36.9333 75.2367 36.7867 75.61 36.6C75.9833 36.4133 76.17 36.0533 76.17 35.52V26.92C76.17 26.2 76.0967 25.5867 75.95 25.08C75.8033 24.5733 75.3833 24.2267 74.69 24.04C74.5833 23.9867 74.49 23.9267 74.41 23.86C74.33 23.7933 74.29 23.68 74.29 23.52C74.29 23.2267 74.41 23.0667 74.65 23.04C75.5833 22.8 76.3433 22.5067 76.93 22.16C77.5167 21.8133 78.09 21.4267 78.65 21C78.73 20.9467 78.8033 20.9 78.87 20.86C78.9367 20.82 79.01 20.8 79.09 20.8C79.1433 20.8 79.19 20.8267 79.23 20.88C79.27 20.9333 79.29 21 79.29 21.08C79.29 21.2667 79.2567 21.6467 79.19 22.22C79.1233 22.7933 79.09 23.2667 79.09 23.64C79.09 23.7467 79.0967 23.8467 79.11 23.94C79.1233 24.0333 79.1433 24.0933 79.17 24.12C80.1033 23.24 81.0967 22.5733 82.15 22.12C83.2033 21.6667 84.3567 21.44 85.61 21.44C86.9167 21.44 87.9967 21.9733 88.85 23.04C89.7033 24.1067 90.13 25.4267 90.13 27V35.52C90.13 36.0533 90.3167 36.4067 90.69 36.58C91.0633 36.7533 91.45 36.9067 91.85 37.04C92.0633 37.12 92.27 37.2067 92.47 37.3C92.67 37.3933 92.77 37.5467 92.77 37.76C92.77 37.92 92.6767 38.02 92.49 38.06C92.3033 38.1 92.13 38.12 91.97 38.12C91.4367 38.12 91.0233 38.1 90.73 38.06C90.4367 38.02 90.1567 37.9867 89.89 37.96C89.6233 37.9333 89.25 37.92 88.77 37.92C88.3167 37.92 87.9433 37.9333 87.65 37.96C87.3567 37.9867 87.0567 38.02 86.75 38.06C86.4433 38.1 86.0233 38.12 85.49 38.12C85.3567 38.12 85.19 38.1 84.99 38.06C84.79 38.02 84.69 37.92 84.69 37.76C84.69 37.5467 84.79 37.3933 84.99 37.3C85.19 37.2067 85.3967 37.12 85.61 37.04C86.01 36.9067 86.3967 36.7533 86.77 36.58C87.1433 36.4067 87.33 36.0533 87.33 35.52V27.12C87.33 25.9467 87.0033 25.0333 86.35 24.38C85.6967 23.7267 84.8233 23.3867 83.73 23.36C82.77 23.36 81.93 23.5133 81.21 23.82C80.49 24.1267 79.85 24.5067 79.29 24.96C79.1833 25.0667 79.1033 25.2067 79.05 25.38C78.9967 25.5533 78.97 25.72 78.97 25.88V35.52C78.97 36.0533 79.1567 36.4133 79.53 36.6C79.9033 36.7867 80.29 36.9333 80.69 37.04C81.3033 37.2 81.61 37.4133 81.61 37.68C81.61 37.84 81.5433 37.9533 81.41 38.02C81.2767 38.0867 81.0767 38.12 80.81 38.12C80.2767 38.12 79.8567 38.1 79.55 38.06C79.2433 38.02 78.9567 37.9867 78.69 37.96C78.4233 37.9333 78.05 37.92 77.57 37.92C77.1167 37.92 76.75 37.9333 76.47 37.96C76.19 37.9867 75.8967 38.02 75.59 38.06C75.2833 38.1 74.8633 38.12 74.33 38.12ZM126.41 38.68C126.17 38.68 125.697 38.48 124.99 38.08C124.283 37.68 123.61 37.04 122.97 36.16C122.863 36.0267 122.537 35.6267 121.99 34.96C121.443 34.2933 120.75 33.46 119.91 32.46C119.07 31.46 118.157 30.3733 117.17 29.2C116.183 28.0267 115.197 26.8533 114.21 25.68C113.223 24.5067 112.303 23.42 111.45 22.42C110.597 21.42 109.883 20.58 109.31 19.9C108.737 19.22 108.383 18.8 108.25 18.64C108.063 18.4 107.903 18.2333 107.77 18.14C107.637 18.0467 107.517 18 107.41 18C107.277 18 107.183 18.1 107.13 18.3C107.077 18.5 107.05 18.68 107.05 18.84C107.023 20.1467 106.997 21.6533 106.97 23.36C106.943 25.0667 106.917 26.8267 106.89 28.64C106.863 30.4533 106.85 32.1867 106.85 33.84C106.85 34.56 107.03 35.2267 107.39 35.84C107.75 36.4533 108.423 36.8533 109.41 37.04C109.863 37.12 110.197 37.2133 110.41 37.32C110.623 37.4267 110.73 37.5733 110.73 37.76C110.73 37.92 110.623 38.0333 110.41 38.1C110.197 38.1667 109.917 38.2 109.57 38.2C108.85 38.2 108.31 38.18 107.95 38.14C107.59 38.1 107.27 38.0667 106.99 38.04C106.71 38.0133 106.317 38 105.81 38C105.33 38 104.957 38.0133 104.69 38.04C104.423 38.0667 104.117 38.1 103.77 38.14C103.423 38.18 102.89 38.2 102.17 38.2C101.823 38.2 101.543 38.1667 101.33 38.1C101.117 38.0333 101.01 37.92 101.01 37.76C101.01 37.5733 101.117 37.4267 101.33 37.32C101.543 37.2133 101.877 37.1067 102.33 37C103.103 36.7867 103.663 36.3933 104.01 35.82C104.357 35.2467 104.57 34.5467 104.65 33.72C104.757 32.7067 104.863 31.3667 104.97 29.7C105.077 28.0333 105.17 26.1667 105.25 24.1C105.33 22.0333 105.37 19.9067 105.37 17.72C105.37 16.3067 105.003 15.2933 104.27 14.68C103.537 14.0667 102.583 13.5733 101.41 13.2C101.303 13.1467 101.07 13.0333 100.71 12.86C100.35 12.6867 100.17 12.48 100.17 12.24C100.17 12 100.29 11.8467 100.53 11.78C100.77 11.7133 100.957 11.68 101.09 11.68C101.863 11.7067 102.49 11.7267 102.97 11.74C103.45 11.7533 103.877 11.7733 104.25 11.8C104.623 11.8267 105.037 11.8467 105.49 11.86C105.943 11.8733 106.53 11.88 107.25 11.88C107.49 11.88 107.677 11.9467 107.81 12.08C107.943 12.2133 108.077 12.3733 108.21 12.56C108.317 12.72 108.67 13.1667 109.27 13.9C109.87 14.6333 110.617 15.5533 111.51 16.66C112.403 17.7667 113.383 18.9667 114.45 20.26C115.517 21.5533 116.583 22.8467 117.65 24.14C118.717 25.4333 119.703 26.6333 120.61 27.74C121.517 28.8467 122.27 29.76 122.87 30.48C123.47 31.2 123.823 31.6267 123.93 31.76C124.037 31.8667 124.19 32.0267 124.39 32.24C124.59 32.4533 124.77 32.56 124.93 32.56C125.17 32.56 125.303 32.28 125.33 31.72C125.33 31.3467 125.337 30.6333 125.35 29.58C125.363 28.5267 125.377 27.2467 125.39 25.74C125.403 24.2333 125.41 22.6 125.41 20.84C125.41 19.08 125.41 17.28 125.41 15.44C125.383 14.9067 125.103 14.4267 124.57 14C124.037 13.5733 123.543 13.32 123.09 13.24C122.637 13.16 122.223 13.0533 121.85 12.92C121.477 12.7867 121.29 12.6267 121.29 12.44C121.29 12.28 121.477 12.1667 121.85 12.1C122.223 12.0333 122.583 12 122.93 12C123.197 12 123.457 12 123.71 12C123.963 12 124.217 12 124.47 12C124.723 12 124.97 12 125.21 12C125.85 12 126.357 11.9933 126.73 11.98C127.103 11.9667 127.51 11.9467 127.95 11.92C128.39 11.8933 129.01 11.88 129.81 11.88C130.157 11.88 130.437 11.9133 130.65 11.98C130.863 12.0467 130.97 12.16 130.97 12.32C130.97 12.6933 130.53 12.96 129.65 13.12C128.663 13.3067 128.01 13.5467 127.69 13.84C127.37 14.1333 127.183 14.6133 127.13 15.28C127.13 15.4133 127.123 15.9333 127.11 16.84C127.097 17.7467 127.09 18.8933 127.09 20.28C127.09 21.6667 127.083 23.16 127.07 24.76C127.057 26.36 127.05 27.9533 127.05 29.54C127.05 31.1267 127.05 32.5467 127.05 33.8C127.05 34.44 127.07 35.02 127.11 35.54C127.15 36.06 127.183 36.5 127.21 36.86C127.237 37.22 127.25 37.4933 127.25 37.68C127.25 38.1067 127.163 38.38 126.99 38.5C126.817 38.62 126.623 38.68 126.41 38.68ZM138.89 38.6C137.423 38.6 136.143 38.24 135.05 37.52C133.957 36.8 133.103 35.78 132.49 34.46C131.877 33.14 131.57 31.6133 131.57 29.88C131.57 28.3333 131.923 26.9267 132.63 25.66C133.337 24.3933 134.277 23.3733 135.45 22.6C136.623 21.8267 137.903 21.44 139.29 21.44C140.357 21.44 141.303 21.6533 142.13 22.08C142.957 22.5067 143.603 23.1 144.07 23.86C144.537 24.62 144.77 25.4933 144.77 26.48C144.77 27.3067 144.37 27.72 143.57 27.72H135.13C134.757 27.72 134.497 27.82 134.35 28.02C134.203 28.22 134.13 28.6133 134.13 29.2C134.13 30.48 134.41 31.6467 134.97 32.7C135.53 33.7533 136.277 34.5933 137.21 35.22C138.143 35.8467 139.17 36.16 140.29 36.16C141.09 36.16 141.817 36.0067 142.47 35.7C143.123 35.3933 143.703 34.9467 144.21 34.36C144.317 34.2267 144.397 34.14 144.45 34.1C144.503 34.06 144.57 34.04 144.65 34.04C144.863 34.04 144.97 34.1733 144.97 34.44C144.97 34.9467 144.73 35.5067 144.25 36.12C143.85 36.6267 143.37 37.0667 142.81 37.44C142.25 37.8133 141.637 38.1 140.97 38.3C140.303 38.5 139.61 38.6 138.89 38.6ZM135.21 26.48H138.85C139.49 26.48 140.037 26.4667 140.49 26.44C140.943 26.4133 141.383 26.36 141.81 26.28C141.943 26.2533 142.03 26.1667 142.07 26.02C142.11 25.8733 142.13 25.6667 142.13 25.4C142.13 24.6267 141.79 23.9667 141.11 23.42C140.43 22.8733 139.623 22.6 138.69 22.6C138.077 22.6 137.463 22.78 136.85 23.14C136.237 23.5 135.73 23.9467 135.33 24.48C134.93 25.0133 134.73 25.5467 134.73 26.08C134.73 26.3467 134.89 26.48 135.21 26.48ZM152.53 38.56C151.223 38.56 150.203 38.16 149.47 37.36C148.737 36.56 148.37 35.3733 148.37 33.8V24.52C148.37 24.3067 148.29 24.1533 148.13 24.06C147.97 23.9667 147.623 23.92 147.09 23.92H146.85C146.717 23.92 146.603 23.8333 146.51 23.66C146.417 23.4867 146.37 23.3067 146.37 23.12C146.37 23.0667 146.41 22.9867 146.49 22.88C146.57 22.7733 146.623 22.7067 146.65 22.68C147.183 22.3067 147.67 21.9333 148.11 21.56C148.55 21.1867 148.95 20.82 149.31 20.46C149.67 20.1 149.97 19.7733 150.21 19.48C150.343 19.3467 150.457 19.2333 150.55 19.14C150.643 19.0467 150.757 19 150.89 19C151.023 19 151.15 19.0267 151.27 19.08C151.39 19.1333 151.437 19.2533 151.41 19.44L151.21 21.24C151.183 21.5333 151.25 21.7333 151.41 21.84C151.57 21.9467 151.823 22 152.17 22H156.73C156.837 22 156.93 22.0867 157.01 22.26C157.09 22.4333 157.13 22.64 157.13 22.88C157.13 23.12 157.09 23.3533 157.01 23.58C156.93 23.8067 156.837 23.92 156.73 23.92H152.77C152.103 23.92 151.67 23.9733 151.47 24.08C151.27 24.1867 151.17 24.5067 151.17 25.04V32.92C151.17 33.9867 151.397 34.8267 151.85 35.44C152.303 36.0533 152.957 36.36 153.81 36.36C154.583 36.36 155.183 36.3 155.61 36.18C156.037 36.06 156.423 35.88 156.77 35.64C156.823 35.5867 156.877 35.56 156.93 35.56C157.037 35.56 157.11 35.62 157.15 35.74C157.19 35.86 157.21 35.9867 157.21 36.12C157.21 36.2533 156.99 36.52 156.55 36.92C156.11 37.32 155.537 37.6933 154.83 38.04C154.123 38.3867 153.357 38.56 152.53 38.56Z" fill="#1A1C1B"/>
</svg>
