<svg width="18" height="18" viewBox="0 0 18 18" fill="none" xmlns="http://www.w3.org/2000/svg">
<path d="M16.1384 17.1923L9.85766 10.9115C9.35766 11.3243 8.78266 11.6474 8.13266 11.8807C7.48266 12.1141 6.81023 12.2307 6.11536 12.2307C4.40767 12.2307 2.96152 11.6384 1.77691 10.4538C0.592305 9.2692 0 7.82305 0 6.11536C0 4.40768 0.592305 2.96153 1.77691 1.77692C2.96152 0.592313 4.40767 7.62939e-06 6.11536 7.62939e-06C7.82304 7.62939e-06 9.26919 0.592313 10.4538 1.77692C11.6384 2.96153 12.2307 4.40768 12.2307 6.11536C12.2307 6.82947 12.1108 7.51152 11.8711 8.16152C11.6314 8.81152 11.3115 9.3769 10.9115 9.85767L17.1922 16.1384L16.1384 17.1923V17.1923M6.11536 10.7308C7.40382 10.7308 8.49517 10.2836 9.3894 9.38941C10.2836 8.49518 10.7307 7.40383 10.7307 6.11536C10.7307 4.8269 10.2836 3.73555 9.3894 2.84132C8.49517 1.94709 7.40382 1.49997 6.11536 1.49997C4.82689 1.49997 3.73554 1.94709 2.84131 2.84132C1.94708 3.73555 1.49996 4.8269 1.49996 6.11536C1.49996 7.40383 1.94708 8.49518 2.84131 9.38941C3.73554 10.2836 4.82689 10.7308 6.11536 10.7308V10.7308" fill="#1A1C1B"/>
</svg>
